<svg width="45" height="37" viewBox="0 0 45 37" fill="none" xmlns="http://www.w3.org/2000/svg">
<path d="M1 14C6.5 9.50002 41 8.50002 43.5 10C46 11.5 34.0148 13.0809 31.5 13.5C28.5 14 23.0108 14.5699 20 15C16.5 15.5 12 16.5 10 15C8.21115 13.6584 6 3.00001 8.5 1.00001C11 -0.999986 13 19.5 13.5 21C14 22.5 16 30.5 15 35C14.4469 37.4888 12.5 33.5 12.5 31.5C12.5 25.6991 14.5 21 16 20C18.0801 18.6132 22 10 25 12C27.5 14.5 22.5 18 22 19C20.7958 21.4083 25.2944 18.1324 27.5 18.5C30.5 19 28.5 35 25.5 34C21.7953 32.7651 21 26.1647 25 26.5C29 26.8353 30.5 32.5 32.5 33C34.5 33.5 35.785 32.529 37.5 31.5C40 30 41.5 25.5 38 24" stroke="black"/>
</svg>
